<svg t="1660817774225" class="icon" viewBox="0 0 1024 1024" version="1.1" xmlns="http://www.w3.org/2000/svg" p-id="1438" width="32" height="32"><path d="M656.50009766 526.89746094l-336.80566407 264.571875C307.17089844 801.30605469 288.7578125 792.43964844 288.7578125 776.571875v-529.14550781c0-15.86425781 18.41308594-24.73242188 30.93662109-14.89570313l336.80566407 264.5709961c9.67675781 7.60253906 9.67675781 22.19414062 0 29.79580078M671.9609375 821.375h56.25a7.03125 7.03125 0 0 0 7.03125-7.03125V209.65625a7.03125 7.03125 0 0 0-7.03125-7.03125h-56.25a7.03125 7.03125 0 0 0-7.03125 7.03125v604.6875a7.03125 7.03125 0 0 0 7.03125 7.03125" p-id="1439"></path></svg>